<svg width="26" height="26" viewBox="0 0 26 26" fill="none" xmlns="http://www.w3.org/2000/svg">
<path d="M21.6665 7.58337H11.9165" stroke="#818181" stroke-width="1.5" stroke-linecap="round" stroke-linejoin="round"/>
<path d="M15.1667 18.4166H5.41675" stroke="#818181" stroke-width="1.5" stroke-linecap="round" stroke-linejoin="round"/>
<path d="M18.4165 21.6666C20.2114 21.6666 21.6665 20.2116 21.6665 18.4166C21.6665 16.6217 20.2114 15.1666 18.4165 15.1666C16.6216 15.1666 15.1665 16.6217 15.1665 18.4166C15.1665 20.2116 16.6216 21.6666 18.4165 21.6666Z" stroke="#818181" stroke-width="1.5" stroke-linecap="round" stroke-linejoin="round"/>
<path d="M7.58325 10.8334C9.37818 10.8334 10.8333 9.3783 10.8333 7.58337C10.8333 5.78845 9.37818 4.33337 7.58325 4.33337C5.78833 4.33337 4.33325 5.78845 4.33325 7.58337C4.33325 9.3783 5.78833 10.8334 7.58325 10.8334Z" stroke="#818181" stroke-width="1.5" stroke-linecap="round" stroke-linejoin="round"/>
</svg>
