<svg width="21" height="21" viewBox="0 0 21 21" fill="none" xmlns="http://www.w3.org/2000/svg">
<mask id="path-1-inside-1_112_462" fill="white">
<path d="M13 0C15.8 0 17.2 0.000134261 18.2695 0.544922C19.2103 1.02429 19.9757 1.78966 20.4551 2.73047C20.9999 3.79998 21 5.20005 21 8V13C21 15.8 20.9999 17.2 20.4551 18.2695C19.9757 19.2103 19.2103 19.9757 18.2695 20.4551C17.2 20.9999 15.8 21 13 21H8C5.20005 21 3.79998 20.9999 2.73047 20.4551C1.78966 19.9757 1.02429 19.2103 0.544922 18.2695C0.00013427 17.2 0 15.8 0 13V8C0 5.20005 0.000134261 3.79998 0.544922 2.73047C1.02429 1.78966 1.78966 1.02429 2.73047 0.544922C3.79998 0.00013427 5.20005 0 8 0H13ZM3.36426 6L3.21484 16.9727H5.05371L10.0664 8.47266L9.86719 16.9727H11.7236L18 6H16.3672L11.3721 15.1484L11.667 6H9.98242L4.68457 15.1484L4.98047 6H3.36426Z"/>
</mask>
<path d="M13 0C15.8 0 17.2 0.000134261 18.2695 0.544922C19.2103 1.02429 19.9757 1.78966 20.4551 2.73047C20.9999 3.79998 21 5.20005 21 8V13C21 15.8 20.9999 17.2 20.4551 18.2695C19.9757 19.2103 19.2103 19.9757 18.2695 20.4551C17.2 20.9999 15.8 21 13 21H8C5.20005 21 3.79998 20.9999 2.73047 20.4551C1.78966 19.9757 1.02429 19.2103 0.544922 18.2695C0.00013427 17.2 0 15.8 0 13V8C0 5.20005 0.000134261 3.79998 0.544922 2.73047C1.02429 1.78966 1.78966 1.02429 2.73047 0.544922C3.79998 0.00013427 5.20005 0 8 0H13ZM3.36426 6L3.21484 16.9727H5.05371L10.0664 8.47266L9.86719 16.9727H11.7236L18 6H16.3672L11.3721 15.1484L11.667 6H9.98242L4.68457 15.1484L4.98047 6H3.36426Z" fill="#0066FF"/>
<path d="M18.2695 0.544922L18.7235 -0.346085L18.7234 -0.346138L18.2695 0.544922ZM20.4551 2.73047L21.3461 2.27658L21.3461 2.27648L20.4551 2.73047ZM20.4551 18.2695L21.3461 18.7235L21.3461 18.7234L20.4551 18.2695ZM18.2695 20.4551L18.7234 21.3461L18.7235 21.3461L18.2695 20.4551ZM2.73047 20.4551L2.27648 21.3461L2.27658 21.3461L2.73047 20.4551ZM0.544922 18.2695L-0.346138 18.7234L-0.346085 18.7235L0.544922 18.2695ZM0.544922 2.73047L-0.346085 2.27648L-0.346138 2.27658L0.544922 2.73047ZM2.73047 0.544922L2.27658 -0.346138L2.27648 -0.346085L2.73047 0.544922ZM3.36426 6V5H2.37778L2.36435 5.98638L3.36426 6ZM3.21484 16.9727L2.21494 16.959L2.20113 17.9727H3.21484V16.9727ZM5.05371 16.9727V17.9727H5.62492L5.91508 17.4806L5.05371 16.9727ZM10.0664 8.47266L11.0661 8.49609L11.1561 4.65622L9.20504 7.96468L10.0664 8.47266ZM9.86719 16.9727L8.86746 16.9492L8.84348 17.9727H9.86719V16.9727ZM11.7236 16.9727V17.9727H12.3037L12.5917 17.4692L11.7236 16.9727ZM18 6L18.868 6.49651L19.724 5H18V6ZM16.3672 6V5H15.7738L15.4895 5.52077L16.3672 6ZM11.3721 15.1484L10.3726 15.1162L12.2498 15.6277L11.3721 15.1484ZM11.667 6L12.6665 6.03222L12.6997 5H11.667V6ZM9.98242 6V5H9.40594L9.11705 5.49887L9.98242 6ZM4.68457 15.1484L3.68509 15.1161L5.54994 15.6496L4.68457 15.1484ZM4.98047 6L5.97995 6.03233L6.01334 5H4.98047V6ZM13 0V1C14.4164 1 15.4187 1.00081 16.2022 1.06484C16.9741 1.12792 17.4453 1.24734 17.8156 1.43598L18.2695 0.544922L18.7234 -0.346138C18.0242 -0.702279 17.2607 -0.855327 16.3651 -0.928512C15.4813 -1.00074 14.3835 -1 13 -1V0ZM18.2695 0.544922L17.8155 1.43593C18.5682 1.81942 19.1806 2.43181 19.5641 3.18446L20.4551 2.73047L21.3461 2.27648C20.7708 1.14751 19.8525 0.229156 18.7235 -0.346085L18.2695 0.544922ZM20.4551 2.73047L19.564 3.18436C19.7527 3.5547 19.8721 4.0259 19.9352 4.79777C19.9992 5.5813 20 6.58355 20 8H21H22C22 6.61649 22.0007 5.51874 21.9285 4.63487C21.8553 3.73934 21.7023 2.97575 21.3461 2.27658L20.4551 2.73047ZM21 8H20V13H21H22V8H21ZM21 13H20C20 14.4164 19.9992 15.4187 19.9352 16.2022C19.8721 16.9741 19.7527 17.4453 19.564 17.8156L20.4551 18.2695L21.3461 18.7234C21.7023 18.0242 21.8553 17.2607 21.9285 16.3651C22.0007 15.4813 22 14.3835 22 13H21ZM20.4551 18.2695L19.5641 17.8155C19.1806 18.5682 18.5682 19.1806 17.8155 19.5641L18.2695 20.4551L18.7235 21.3461C19.8525 20.7708 20.7708 19.8525 21.3461 18.7235L20.4551 18.2695ZM18.2695 20.4551L17.8156 19.564C17.4453 19.7527 16.9741 19.8721 16.2022 19.9352C15.4187 19.9992 14.4164 20 13 20V21V22C14.3835 22 15.4813 22.0007 16.3651 21.9285C17.2607 21.8553 18.0243 21.7023 18.7234 21.3461L18.2695 20.4551ZM13 21V20H8V21V22H13V21ZM8 21V20C6.58355 20 5.5813 19.9992 4.79777 19.9352C4.0259 19.8721 3.5547 19.7527 3.18436 19.564L2.73047 20.4551L2.27658 21.3461C2.97575 21.7023 3.73934 21.8553 4.63487 21.9285C5.51874 22.0007 6.61649 22 8 22V21ZM2.73047 20.4551L3.18446 19.5641C2.43181 19.1806 1.81942 18.5682 1.43593 17.8155L0.544922 18.2695L-0.346085 18.7235C0.229156 19.8525 1.14751 20.7708 2.27648 21.3461L2.73047 20.4551ZM0.544922 18.2695L1.43598 17.8156C1.24734 17.4453 1.12792 16.9741 1.06484 16.2022C1.00081 15.4187 1 14.4164 1 13H0H-1C-1 14.3835 -1.00074 15.4813 -0.928512 16.3651C-0.855327 17.2607 -0.702279 18.0243 -0.346138 18.7234L0.544922 18.2695ZM0 13H1V8H0H-1V13H0ZM0 8H1C1 6.58355 1.00081 5.5813 1.06484 4.79777C1.12792 4.0259 1.24734 3.5547 1.43598 3.18436L0.544922 2.73047L-0.346138 2.27658C-0.702279 2.97575 -0.855327 3.73934 -0.928512 4.63487C-1.00074 5.51874 -1 6.61649 -1 8H0ZM0.544922 2.73047L1.43593 3.18446C1.81942 2.43181 2.43181 1.81942 3.18446 1.43593L2.73047 0.544922L2.27648 -0.346085C1.14751 0.229156 0.229156 1.14751 -0.346085 2.27648L0.544922 2.73047ZM2.73047 0.544922L3.18436 1.43598C3.5547 1.24734 4.0259 1.12792 4.79777 1.06484C5.5813 1.00081 6.58355 1 8 1V0V-1C6.61649 -1 5.51874 -1.00074 4.63487 -0.928512C3.73934 -0.855327 2.97575 -0.702279 2.27658 -0.346138L2.73047 0.544922ZM8 0V1H13V0V-1H8V0ZM3.36426 6L2.36435 5.98638L2.21494 16.959L3.21484 16.9727L4.21475 16.9863L4.36417 6.01362L3.36426 6ZM3.21484 16.9727V17.9727H5.05371V16.9727V15.9727H3.21484V16.9727ZM5.05371 16.9727L5.91508 17.4806L10.9278 8.98063L10.0664 8.47266L9.20504 7.96468L4.19234 16.4647L5.05371 16.9727ZM10.0664 8.47266L9.06668 8.44923L8.86746 16.9492L9.86719 16.9727L10.8669 16.9961L11.0661 8.49609L10.0664 8.47266ZM9.86719 16.9727V17.9727H11.7236V16.9727V15.9727H9.86719V16.9727ZM11.7236 16.9727L12.5917 17.4692L18.868 6.49651L18 6L17.132 5.50349L10.8556 16.4761L11.7236 16.9727ZM18 6V5H16.3672V6V7H18V6ZM16.3672 6L15.4895 5.52077L10.4944 14.6692L11.3721 15.1484L12.2498 15.6277L17.2449 6.47923L16.3672 6ZM11.3721 15.1484L12.3716 15.1807L12.6665 6.03222L11.667 6L10.6675 5.96778L10.3726 15.1162L11.3721 15.1484ZM11.667 6V5H9.98242V6V7H11.667V6ZM9.98242 6L9.11705 5.49887L3.8192 14.6473L4.68457 15.1484L5.54994 15.6496L10.8478 6.50113L9.98242 6ZM4.68457 15.1484L5.68405 15.1808L5.97995 6.03233L4.98047 6L3.98099 5.96767L3.68509 15.1161L4.68457 15.1484ZM4.98047 6V5H3.36426V6V7H4.98047V6Z" fill="#3586FF" mask="url(#path-1-inside-1_112_462)"/>
</svg>
